<mxfile host="app.diagrams.net" modified="2024-05-24T03:51:37.915Z" agent="Mozilla/5.0 (Windows NT 10.0; Win64; x64) AppleWebKit/537.36 (KHTML, like Gecko) Chrome/122.0.0.0 Safari/537.36" etag="mc-b3iZAmduJubOG2m19" version="24.4.4" type="github">
  <diagram name="第 1 页" id="ulDMnFl_gU0zTSY2j7s4">
    <mxGraphModel dx="1221" dy="618" grid="1" gridSize="10" guides="1" tooltips="1" connect="1" arrows="1" fold="1" page="1" pageScale="1" pageWidth="2339" pageHeight="3300" math="0" shadow="0">
      <root>
        <mxCell id="0" />
        <mxCell id="1" parent="0" />
        <mxCell id="np9-vX_iGKA-2d9yec7W-1" value="" style="ellipse;whiteSpace=wrap;html=1;aspect=fixed;" vertex="1" parent="1">
          <mxGeometry x="520" y="140" width="50" height="50" as="geometry" />
        </mxCell>
      </root>
    </mxGraphModel>
  </diagram>
</mxfile>
